<svg width="380" height="72" viewBox="0 0 380 72" fill="none" xmlns="http://www.w3.org/2000/svg">
<path d="M1 47.1088V1H379V63H359L359 57V56H358H320H319V57V63H15.6783L1 47.1088Z" stroke="#FFCE00" stroke-width="2"/>
<line x1="377" y1="2" x2="377" y2="62" stroke="#FF003C" stroke-width="2"/>
<g filter="url(#filter0_d_5078_5293)">
<line x1="321" y1="57" x2="321" y2="64" stroke="#FF003C" stroke-width="2"/>
</g>
<path d="M101.21 37.47V27.13L103.74 24.6H111.396L113.882 27.086V29.44H110.89V28.186L109.856 27.152H105.324L104.202 28.274V36.326L105.324 37.448H109.9L110.978 36.37V33.972H107.678V31.42H113.882V37.47L111.352 40H103.74L101.21 37.47ZM117.397 24.6H128.529V27.13H120.389V31.024H127.891V33.51H120.389V37.47H128.529V40H117.397V24.6ZM135.337 27.13H130.739V24.6H142.927V27.13H138.329V40H135.337V27.13ZM156.379 27.13H151.781V24.6H163.969V27.13H159.371V40H156.379V27.13ZM166.828 24.6H169.82V31.046H176.332V24.6H179.324V40H176.332V33.598H169.82V40H166.828V24.6ZM183.29 24.6H194.422V27.13H186.282V31.024H193.784V33.51H186.282V37.47H194.422V40H183.29V24.6ZM218.048 41.232L216.2 43.08L213.098 40H207.136L204.606 37.47V27.13L207.136 24.6H215.056L217.586 27.13V37.47L215.958 39.098L218.048 41.232ZM213.472 37.448L214.594 36.326V28.274L213.472 27.152H208.72L207.598 28.274V36.326L208.72 37.448H213.472ZM221.33 37.36V24.6H224.322V36.326L225.444 37.448H229.756L230.878 36.326V24.6H233.87V37.36L231.23 40H223.97L221.33 37.36ZM237.834 24.6H248.966V27.13H240.826V31.024H248.328V33.51H240.826V37.47H248.966V40H237.834V24.6ZM251.946 37.624V35.424H254.894V36.722L255.62 37.448H260.174L260.922 36.7V34.148L260.196 33.422H254.366L251.99 31.046V26.976L254.366 24.6H261.318L263.694 26.976V29.198H260.746V27.878L260.02 27.152H255.664L254.938 27.878V30.144L255.664 30.87H261.494L263.87 33.246V37.58L261.45 40H254.322L251.946 37.624ZM270.323 27.13H265.725V24.6H277.913V27.13H273.315V40H270.323V27.13Z" fill="#FFCE00"/>
<defs>
<filter id="filter0_d_5078_5293" x="316" y="57" width="10" height="15" filterUnits="userSpaceOnUse" color-interpolation-filters="sRGB">
<feFlood flood-opacity="0" result="BackgroundImageFix"/>
<feColorMatrix in="SourceAlpha" type="matrix" values="0 0 0 0 0 0 0 0 0 0 0 0 0 0 0 0 0 0 127 0" result="hardAlpha"/>
<feOffset dy="4"/>
<feGaussianBlur stdDeviation="2"/>
<feComposite in2="hardAlpha" operator="out"/>
<feColorMatrix type="matrix" values="0 0 0 0 0 0 0 0 0 0 0 0 0 0 0 0 0 0 0.25 0"/>
<feBlend mode="normal" in2="BackgroundImageFix" result="effect1_dropShadow_5078_5293"/>
<feBlend mode="normal" in="SourceGraphic" in2="effect1_dropShadow_5078_5293" result="shape"/>
</filter>
</defs>
</svg>
