<svg width="124" height="124" viewBox="0 0 124 124" fill="none" xmlns="http://www.w3.org/2000/svg">
<path d="M62 113.667C54.9389 113.667 48.2653 112.31 41.9791 109.595C35.693 106.881 30.2043 103.178 25.513 98.487C20.8216 93.7957 17.1189 88.307 14.4046 82.0209C11.6904 75.7348 10.3333 69.0612 10.3333 62C10.3333 54.8528 11.6904 48.1585 14.4046 41.9172C17.1189 35.6759 20.8216 30.2078 25.513 25.513C30.2043 20.8183 35.693 17.1155 41.9791 14.4047C48.2653 11.6939 54.9389 10.3368 62 10.3334C69.1472 10.3334 75.8432 11.6905 82.088 14.4047C88.3328 17.1189 93.7991 20.8217 98.487 25.513C103.175 30.2044 106.878 35.6724 109.595 41.9172C112.313 48.162 113.67 54.8563 113.667 62C113.667 69.0612 112.31 75.7348 109.595 82.0209C106.881 88.307 103.178 93.7974 98.487 98.4922C93.7956 103.187 88.3276 106.89 82.0828 109.601C75.838 112.311 69.1438 113.667 62 113.667ZM62 103.075C64.2389 99.9751 66.1764 96.7459 67.8125 93.3875C69.4486 90.0292 70.7833 86.4556 71.8166 82.6667H52.1833C53.2166 86.4556 54.5514 90.0292 56.1875 93.3875C57.8236 96.7459 59.7611 99.9751 62 103.075ZM48.5666 101.008C47.0166 98.1667 45.6613 95.2165 44.5005 92.1579C43.3397 89.0992 42.3701 85.9355 41.5916 82.6667H26.35C28.8472 86.9723 31.9696 90.7181 35.7171 93.9042C39.4647 97.0903 43.7479 99.4584 48.5666 101.008ZM75.4333 101.008C80.2555 99.4584 84.5404 97.0903 88.288 93.9042C92.0355 90.7181 95.1562 86.9723 97.65 82.6667H82.4083C81.6333 85.9389 80.6654 89.1044 79.5046 92.163C78.3439 95.2217 76.9868 98.1702 75.4333 101.008ZM21.9583 72.3334H39.525C39.2666 70.6112 39.0738 68.9113 38.9463 67.2339C38.8189 65.5564 38.7534 63.8118 38.75 62C38.7465 60.1883 38.812 58.4454 38.9463 56.7714C39.0806 55.0974 39.2735 53.3958 39.525 51.6667H21.9583C21.5278 53.3889 21.2057 55.0905 20.9921 56.7714C20.7786 58.4523 20.6701 60.1952 20.6666 62C20.6632 63.8049 20.7717 65.5495 20.9921 67.2339C21.2126 68.9182 21.5346 70.618 21.9583 72.3334ZM49.8583 72.3334H74.1416C74.4 70.6112 74.5946 68.9113 74.7255 67.2339C74.8564 65.5564 74.9201 63.8118 74.9166 62C74.9132 60.1883 74.8478 58.4454 74.7203 56.7714C74.5929 55.0974 74.4 53.3958 74.1416 51.6667H49.8583C49.6 53.3889 49.4071 55.0905 49.2796 56.7714C49.1522 58.4523 49.0868 60.1952 49.0833 62C49.0799 63.8049 49.1453 65.5495 49.2796 67.2339C49.414 68.9182 49.6069 70.618 49.8583 72.3334ZM84.475 72.3334H102.042C102.472 70.6112 102.796 68.9113 103.013 67.2339C103.23 65.5564 103.337 63.8118 103.333 62C103.33 60.1883 103.223 58.4454 103.013 56.7714C102.803 55.0974 102.479 53.3958 102.042 51.6667H84.475C84.7333 53.3889 84.9279 55.0905 85.0588 56.7714C85.1897 58.4523 85.2534 60.1952 85.25 62C85.2465 63.8049 85.1811 65.5495 85.0536 67.2339C84.9262 68.9182 84.7333 70.618 84.475 72.3334ZM82.4083 41.3334H97.65C95.1528 37.0278 92.0321 33.282 88.288 30.0959C84.5439 26.9098 80.259 24.5417 75.4333 22.9917C76.9833 25.8334 78.3404 28.7835 79.5046 31.8422C80.6689 34.9009 81.6368 38.0646 82.4083 41.3334ZM52.1833 41.3334H71.8166C70.7833 37.5445 69.4486 33.9709 67.8125 30.6125C66.1764 27.2542 64.2389 24.025 62 20.925C59.7611 24.025 57.8236 27.2542 56.1875 30.6125C54.5514 33.9709 53.2166 37.5445 52.1833 41.3334ZM26.35 41.3334H41.5916C42.3666 38.0612 43.3363 34.8957 44.5005 31.837C45.6647 28.7784 47.0201 25.8299 48.5666 22.9917C43.7444 24.5417 39.4595 26.9098 35.712 30.0959C31.9644 33.282 28.8438 37.0278 26.35 41.3334Z" fill="#FFCE00"/>
</svg>
